PathFileType	4	(X/Y/Z)	Walk4.trc
DataRate	CameraRate	NumFrames	NumMarkers	Units	OrigDataRate	OrigDataStartFrame	OrigNumFrames
200.000000	200.000000	4	69	mm	200.000000	972	1013
Frame#	Times		LFHD		LowerBodyModelVer		RCAR		RFHD		RWRU		RACR1		RFA1		RASI		LElbow		LTH3		LTB1		RUA1		LMT1		LACR1		LLFC		LMT5		LTH4		LTH2		LUA1		RTH2		LTB3		LTB2		LTB4		LToe		STRN		RBHD		CLAV		RTH4		RLFC		LLMAL		LASI		PELOrigin		RTH3		LWRU		RBack		LTH1		LFA1		C7		RPSI		LBHD		RMT1		RCAL		RMT5		LPSI		RTH1		RTB2		RToe		LHJC		MidPelvis		OPelvis		RHJC		SACR		XPelvis		YPelvis		ZPelvis		LCAR		RLMAL		LWRR		RWRR		RElbow		RTB1		RTB3		RTB4		RMMAL		LMMAL		T10		RElbowM		LCAL		LElbowM
			X1	Y1	Z1	X2	Y2	Z2	X3	Y3	Z3	X4	Y4	Z4	X5	Y5	Z5	X6	Y6	Z6	X7	Y7	Z7	X8	Y8	Z8	X9	Y9	Z9	X10	Y10	Z10	X11	Y11	Z11	X12	Y12	Z12	X13	Y13	Z13	X14	Y14	Z14	X15	Y15	Z15	X16	Y16	Z16	X17	Y17	Z17	X18	Y18	Z18	X19	Y19	Z19	X20	Y20	Z20	X21	Y21	Z21	X22	Y22	Z22	X23	Y23	Z23	X24	Y24	Z24	X25	Y25	Z25	X26	Y26	Z26	X27	Y27	Z27	X28	Y28	Z28	X29	Y29	Z29	X30	Y30	Z30	X31	Y31	Z31	X32	Y32	Z32	X33	Y33	Z33	X34	Y34	Z34	X35	Y35	Z35	X36	Y36	Z36	X37	Y37	Z37	X38	Y38	Z38	X39	Y39	Z39	X40	Y40	Z40	X41	Y41	Z41	X42	Y42	Z42	X43	Y43	Z43	X44	Y44	Z44	X45	Y45	Z45	X46	Y46	Z46	X47	Y47	Z47	X48	Y48	Z48	X49	Y49	Z49	X50	Y50	Z50	X51	Y51	Z51	X52	Y52	Z52	X53	Y53	Z53	X54	Y54	Z54	X55	Y55	Z55	X56	Y56	Z56	X57	Y57	Z57	X58	Y58	Z58	X59	Y59	Z59	X60	Y60	Z60	X61	Y61	Z61	X62	Y62	Z62	X63	Y63	Z63	X64	Y64	Z64	X65	Y65	Z65	X66	Y66	Z66	X67	Y67	Z67	X68	Y68	Z68	X69	Y69	Z69

972	4.86	909.05	1576.6	-23.213	9	2014	4	715.53	780.96	325.75	906.82	1573	74.962	684.24	841.04	346.49	760.33	1381.4	188.99	711.75	946.33	319.8	847.3	971.79	206.85	761.51	1065.8	-290.18	797.73	559.26	-130.62	774.49	335.83	-13.022	709.71	1241.5	275.53	843.45	36.783	2.1704	796.96	1358.3	-169.79	761.9	487.87	-119.35	826.29	25.849	-88.791	813.68	640.83	-158.56	862.12	642.38	-123.2	794.96	1211.8	-248.11	897.63	670.12	236.71	754.92	165.53	-19.026	763.41	254.12	-80.313	761.61	247.46	-17.269	886.46	31.854	1.0982	916.46	1228.7	31.895	736.17	1573.8	79.597	851.12	1344.3	15.329	840.83	653.82	248.04	880.36	483.66	232.34	708.88	69.324	-77.764	868.05	962.52	-153.98	857.68	967.15	26.434	863.93	570.09	238.75	834.17	835.07	-340.79	627.77	1316.6	103.25	833.75	718.68	-186.75	836.58	952.55	-307.51	690.21	1417.4	12.288	607.74	977.37	48.1	757.68	1567.2	-54.341	870.76	48.667	143.54	687.16	92.133	141.4	839.55	45.294	223.81	629.23	981.09	-84.042	827.05	737.29	260.69	846.22	301.76	218.52	908.8	37.766	161.21	775.25	852.94	-98.54	738.08	973.19	4.2316	857.68	967.15	26.434	761.14	859.25	146.83	618.49	979.23	-17.971	937.43	962.9	31.129	862.04	1047	24.632	853.09	969.21	106.28	876.66	792.35	-333.69	738.73	115.54	196.99	875.1	838.8	-278.75	727.18	841.25	285.71	656.98	1079.2	306.52	913.57	363.96	163.93	824.32	204.9	135.08	868.95	284.43	149.5	776.27	119.25	119.54	718.66	74.355	5.1846	640.01	1085.3	1.3261	627.85	1067.9	218.68	653.31	29.626	-38.515	736.14	1027.7	-191.85
973	4.865	913.49	1576.1	-23.379	9	2014	4	718.92	780.71	325.58	911.2	1572.5	74.799	687.45	840.74	346.04	764.32	1381	188.66	715.06	946.04	319.58	851.54	971.71	206.75	768.07	1065.3	-290.9	799.88	559.04	-130.6	775.03	335.72	-12.802	713.35	1241.1	274.98	843.47	36.803	2.1357	801.8	1357.8	-169.94	763.4	487.82	-119.38	826.31	25.804	-88.849	816.89	640.46	-158.37	865.09	641.46	-122.67	800.35	1211.5	-248.53	903.15	670.29	236.03	755.22	165.45	-19.01	764.06	254.1	-80.246	762.07	247.95	-17.238	886.54	31.828	1.0228	920.44	1228	32.522	740.53	1573.3	79.331	855.35	1343.8	15.273	846.48	653.67	247.58	886.92	483.53	231.46	708.95	69.359	-77.762	872.11	961.98	-154.13	861.82	966.84	26.31	870.04	570.02	238.05	843.99	835.64	-341.04	631.87	1316.4	102.61	837.94	718.13	-186.32	844.68	953.03	-307.72	694.53	1417	11.768	611.78	976.98	47.992	762.13	1566.8	-54.61	888.42	48.256	144.81	703.63	86.768	141.81	856.99	44.468	224.92	633.28	980.68	-84.089	832.23	737.05	260.35	857.1	300.84	218.11	926.65	38.493	162.61	779.35	852.45	-98.493	742.18	972.84	4.131	861.82	966.84	26.31	765.36	859.06	146.9	622.53	978.83	-18.048	941.58	962.61	30.97	866.18	1046.7	24.405	857.27	969	106.15	886.88	793.35	-333.53	754.43	111.75	197.44	883.39	839.25	-278.13	730.84	840.9	285.66	660.38	1079	306.03	922.65	364.59	163.28	837.82	203.09	135.17	880.23	283.84	149.23	792.14	116.13	120.04	718.7	74.362	5.1263	644.05	1084.9	0.96646	631.46	1067.6	218.14	653.34	29.652	-38.49	742.56	1026.9	-192.73
974	4.87	917.93	1575.5	-23.523	9	2014	4	722.39	780.45	325.49	915.58	1571.9	74.658	690.71	840.41	345.64	768.3	1380.5	188.37	718.41	945.71	319.4	855.81	971.58	206.62	774.63	1064.9	-291.6	802.05	558.84	-130.59	775.65	335.6	-12.57	717	1240.6	274.47	843.49	36.82	2.105	806.64	1357.3	-170.05	764.98	487.77	-119.39	826.34	25.753	-88.903	820.04	640.1	-158.21	868.05	640.57	-122.26	805.79	1211.1	-248.92	908.59	670.37	235.33	755.54	165.37	-18.988	764.77	254.07	-80.16	762.55	248.41	-17.184	886.61	31.795	0.94875	924.41	1227.3	33.15	744.9	1572.9	79.085	859.57	1343.2	15.249	852.06	653.46	247.13	893.33	483.33	230.56	709.02	69.402	-77.767	876.18	961.45	-154.26	865.99	966.52	26.184	876.01	569.89	237.33	853.77	836.22	-341.23	635.97	1316.1	101.99	842	717.6	-185.96	852.76	953.5	-307.89	698.86	1416.6	11.279	615.82	976.54	47.95	766.58	1566.3	-54.855	906.13	48.025	146.08	720.29	81.545	142.31	874.51	43.805	226.05	637.32	980.24	-84.065	837.37	736.75	260.03	867.95	299.96	217.71	944.51	39.413	164	783.48	851.96	-98.444	746.28	972.45	4.0633	865.99	966.52	26.184	769.63	858.84	146.95	626.57	978.39	-18.058	945.75	962.31	30.802	870.32	1046.4	24.188	861.49	968.76	106.03	897.04	794.37	-333.32	770.29	108.08	197.96	891.83	839.8	-277.56	734.53	840.53	285.64	663.81	1078.6	305.59	931.62	365.23	162.6	851.36	201.37	135.28	891.49	283.3	148.94	808.14	113.13	120.57	718.74	74.368	5.0618	648.08	1084.6	0.65202	635.11	1067.3	217.65	653.37	29.693	-38.475	749	1026.2	-193.58
975	4.875	922.38	1574.9	-23.642	9	2014	4	725.93	780.18	325.46	919.96	1571.3	74.54	694.01	840.05	345.28	772.28	1380.1	188.11	721.79	945.36	319.26	860.12	971.39	206.48	781.19	1064.4	-292.26	804.24	558.65	-130.62	776.34	335.47	-12.338	720.68	1240.2	274.03	843.5	36.831	2.0789	811.49	1356.7	-170.14	766.66	487.73	-119.37	826.36	25.696	-88.952	823.12	639.77	-158.09	871	639.71	-121.97	811.27	1210.8	-249.29	913.96	670.39	234.61	755.88	165.29	-18.96	765.54	254.03	-80.063	763.06	248.82	-17.115	886.7	31.757	0.87658	928.37	1226.7	33.773	749.28	1572.4	78.86	863.8	1342.6	15.255	857.55	653.21	246.67	899.57	483.08	229.64	709.11	69.452	-77.782	880.25	960.94	-154.37	870.19	966.17	26.057	881.85	569.71	236.59	863.52	836.8	-341.36	640.07	1315.7	101.41	845.92	717.1	-185.66	860.82	953.96	-308.03	703.21	1416.2	10.821	619.85	976.04	47.973	771.04	1565.9	-55.076	923.88	47.992	147.31	737.13	76.486	142.9	892.12	43.324	227.17	641.35	979.77	-83.971	842.47	736.42	259.73	878.78	299.13	217.3	962.38	40.545	165.35	787.64	851.47	-98.399	750.39	972.04	4.0292	870.19	966.17	26.057	773.95	858.57	146.98	630.6	977.91	-17.999	949.95	962	30.626	874.48	1046	23.983	865.73	968.48	105.9	907.16	795.4	-333.05	786.3	104.55	198.54	900.39	840.43	-277.01	738.25	840.15	285.66	667.27	1078.3	305.19	940.48	365.88	161.89	864.92	199.75	135.4	902.7	282.82	148.65	824.23	110.3	121.14	718.79	74.377	4.9941	652.11	1084.2	0.38552	638.78	1066.9	217.2	653.39	29.751	-38.47	755.44	1025.4	-194.41
